<?xml version="1.0" encoding="utf-8"?>
<!-- Generator: Adobe Illustrator 17.1.0, SVG Export Plug-In . SVG Version: 6.00 Build 0)  -->
<!DOCTYPE svg PUBLIC "-//W3C//DTD SVG 1.1//EN" "http://www.w3.org/Graphics/SVG/1.1/DTD/svg11.dtd">
<svg version="1.1" id="Layer_1" xmlns="http://www.w3.org/2000/svg" xmlns:xlink="http://www.w3.org/1999/xlink" x="0px" y="0px"
	 viewBox="51.1 3.3 269.3 258.4" enable-background="new 51.1 3.3 269.3 258.4" xml:space="preserve">
<g>
	<g opacity="0.5">
		<path fill="#FFFFFF" d="M52.6,250.1v11.4h-1.6v-11.4H52.6z"/>
		<path fill="#FFFFFF" d="M59.8,261.5l-3.4-7.9v7.9h-1.6v-11.4h1.7l3.4,8.1v-8h1.6v11.4L59.8,261.5L59.8,261.5z"/>
		<path fill="#FFFFFF" d="M67.3,251.7v9.9h-1.6v-9.9H63v-1.5h6.9v1.5H67.3z"/>
		<path fill="#FFFFFF" d="M71.3,261.5v-11.4h6.3v1.5h-4.8v3.1h4.4v1.5h-4.4v3.7h4.8v1.5C77.7,261.5,71.3,261.5,71.3,261.5z"/>
		<path fill="#FFFFFF" d="M82.6,261.7c-2.6,0-3.3-2.1-3.3-3.2v-5.4c0-1,0.7-3.1,3.3-3.1c2.5,0,3.3,2,3.3,3.1h-1.6
			c0-1.4-1.2-1.6-1.7-1.6c-0.6,0-1.8,0.2-1.8,1.6v5.3c0,1.4,1.2,1.6,1.8,1.6c0.5,0,1.8-0.2,1.8-1.6v-1.9h-2v-1.5h3.5v3.4
			C85.9,259.6,85.2,261.7,82.6,261.7z"/>
		<path fill="#FFFFFF" d="M93.2,261.5l-2.2-4.7h-1.5v4.7H88v-11.4h3.4c2.7,0,3.2,2.1,3.2,3.1v0.5c0,0.8-0.4,2.4-1.9,2.9l2.3,4.8
			L93.2,261.5L93.2,261.5z M93.1,253.3c0-1.4-1.1-1.6-1.7-1.6h-1.9v3.7h1.9c0.6,0,1.6-0.2,1.6-1.6L93.1,253.3L93.1,253.3z"/>
		<path fill="#FFFFFF" d="M102.6,261.5l-0.8-3.1h-3.4l-0.8,3.1H96l3-11.4h2.2l3,11.4H102.6z M100.1,251.7l-1.4,5.2h2.7L100.1,251.7z
			"/>
		<path fill="#FFFFFF" d="M108.1,251.7v9.9h-1.6v-9.9h-2.7v-1.5h6.9v1.5H108.1z"/>
		<path fill="#FFFFFF" d="M112.2,261.5v-11.4h6.3v1.5h-4.8v3.1h4.4v1.5h-4.4v3.7h4.8v1.5C118.6,261.5,112.2,261.5,112.2,261.5z"/>
		<path fill="#FFFFFF" d="M126.9,258.4c0,1-0.5,3.1-3.1,3.1h-3.5v-11.4h3.4c2.6,0,3.2,2.1,3.2,3.1V258.4z M125.4,253.3
			c0-1.4-1-1.6-1.6-1.6h-1.9v8.3h1.9c0.6,0,1.6-0.2,1.6-1.6C125.4,258.4,125.4,253.3,125.4,253.3z"/>
		<path fill="#FFFFFF" d="M133.1,261.5v-11.4h1.8l2.3,5.7l2.3-5.7h1.8v11.4h-1.6v-8.2l-1.9,4.8h-1.2l-1.9-4.8v8.2L133.1,261.5
			L133.1,261.5z"/>
		<path fill="#FFFFFF" d="M149.3,261.5l-0.8-3.1H145l-0.8,3.1h-1.6l3-11.4h2.2l3,11.4H149.3z M146.8,251.7l-1.4,5.2h2.7L146.8,251.7
			z"/>
		<path fill="#FFFFFF" d="M157.5,261.5l-2.2-4.7h-1.5v4.7h-1.6v-11.4h3.4c2.7,0,3.2,2.1,3.2,3.1v0.5c0,0.8-0.4,2.4-1.9,2.9l2.3,4.8
			L157.5,261.5L157.5,261.5z M157.3,253.3c0-1.4-1.1-1.6-1.7-1.6h-1.8v3.7h1.9c0.6,0,1.6-0.2,1.6-1.6V253.3z"/>
		<path fill="#FFFFFF" d="M166.3,261.5l-2.9-4.9l-0.7,1.1v3.8H161v-11.4h1.6v4.8l3.4-4.8h1.8l-3.6,5.1l3.8,6.3L166.3,261.5
			L166.3,261.5z"/>
		<path fill="#FFFFFF" d="M169.4,261.5v-11.4h6.3v1.5H171v3.1h4.4v1.5H171v3.7h4.8v1.5C175.8,261.5,169.4,261.5,169.4,261.5z"/>
		<path fill="#FFFFFF" d="M180.9,251.7v9.9h-1.6v-9.9h-2.7v-1.5h6.9v1.5H180.9z"/>
		<path fill="#FFFFFF" d="M186.6,250.1v11.4H185v-11.4H186.6z"/>
		<path fill="#FFFFFF" d="M193.8,261.5l-3.4-7.9v7.9h-1.6v-11.4h1.7l3.4,8v-8h1.6v11.4H193.8z"/>
		<path fill="#FFFFFF" d="M200.9,261.7c-2.6,0-3.3-2.1-3.3-3.2v-5.4c0-1,0.7-3.1,3.3-3.1c2.5,0,3.3,2,3.3,3.1h-1.6
			c0-1.4-1.2-1.6-1.7-1.6c-0.6,0-1.8,0.2-1.8,1.6v5.3c0,1.4,1.2,1.6,1.8,1.6c0.5,0,1.8-0.2,1.8-1.6v-1.9h-2v-1.5h3.5v3.4
			C204.3,259.6,203.5,261.7,200.9,261.7z"/>
		<path fill="#FFFFFF" d="M206.3,261.5v-2.1h2.1v2.1H206.3z"/>
		<path fill="#FFFFFF" d="M221.1,258.4c0,1-0.5,3.1-3.1,3.1h-3.5v-11.4h3.5c2.6,0,3.2,2.1,3.2,3.1V258.4z M219.6,253.3
			c0-1.4-1-1.6-1.6-1.6h-1.9v8.3h1.9c0.6,0,1.6-0.2,1.6-1.6V253.3z"/>
		<path fill="#FFFFFF" d="M224.8,250.1v11.4h-1.6v-11.4H224.8z"/>
		<path fill="#FFFFFF" d="M230.2,261.7c-2.6,0-3.3-2.1-3.3-3.2v-5.4c0-1,0.7-3.1,3.3-3.1c2.5,0,3.3,2,3.3,3.1h-1.6
			c0-1.4-1.2-1.6-1.7-1.6c-0.6,0-1.8,0.2-1.8,1.6v5.3c0,1.4,1.2,1.6,1.8,1.6c0.5,0,1.8-0.2,1.8-1.6v-1.9h-2v-1.5h3.5v3.4
			C233.5,259.6,232.8,261.7,230.2,261.7z"/>
		<path fill="#FFFFFF" d="M237.2,250.1v11.4h-1.6v-11.4H237.2z"/>
		<path fill="#FFFFFF" d="M242.8,251.7v9.9h-1.6v-9.9h-2.7v-1.5h6.9v1.5H242.8z"/>
		<path fill="#FFFFFF" d="M251.9,261.5l-0.8-3.1h-3.4l-0.8,3.1h-1.6l3-11.4h2.2l3,11.4H251.9z M249.4,251.7l-1.4,5.2h2.7
			L249.4,251.7z"/>
		<path fill="#FFFFFF" d="M254.9,261.5v-11.4h1.6v9.9h4.8v1.5H254.9z"/>
		<path fill="#FFFFFF" d="M269.6,261.7c-2.6,0-3.3-2.1-3.3-3.2v-5.4c0-1,0.7-3.1,3.3-3.1c2.5,0,3.3,2.1,3.3,3.1h-1.6
			c0-1.4-1.2-1.6-1.8-1.6c-0.6,0-1.8,0.2-1.8,1.6v5.3c0,1.4,1.2,1.6,1.8,1.6c0.5,0,1.8-0.2,1.8-1.6h1.6
			C272.9,259.6,272.2,261.7,269.6,261.7z"/>
		<path fill="#FFFFFF" d="M277.8,261.7c-2.6,0-3.3-2.1-3.3-3.2v-5.4c0-1,0.7-3.1,3.3-3.1c2.5,0,3.3,2.1,3.3,3.1v5.4
			C281.1,259.6,280.5,261.7,277.8,261.7z M279.6,253.2c0-1.4-1.2-1.6-1.8-1.6c-0.6,0-1.8,0.2-1.8,1.6v5.3c0,1.4,1.2,1.6,1.8,1.6
			c0.5,0,1.8-0.2,1.8-1.6V253.2z"/>
		<path fill="#FFFFFF" d="M288.5,261.5l-2.2-4.7h-1.5v4.7h-1.6v-11.4h3.4c2.7,0,3.2,2.1,3.2,3.1v0.5c0,0.8-0.4,2.4-1.9,2.9l2.3,4.8
			L288.5,261.5L288.5,261.5z M288.3,253.3c0-1.4-1.1-1.6-1.7-1.6h-1.9v3.7h1.9c0.6,0,1.6-0.2,1.6-1.6L288.3,253.3L288.3,253.3z"/>
		<path fill="#FFFFFF" d="M292.1,261.5v-11.4h6.3v1.5h-4.8v3.1h4.4v1.5h-4.4v3.7h4.8v1.5C298.4,261.5,292.1,261.5,292.1,261.5z"/>
		<path fill="#FFFFFF" d="M300.1,261.5v-2.1h2.1v2.1H300.1z"/>
	</g>
	<g>
		<g>
			<path fill="#FFFFFF" d="M176.6,107.8c-28.8,0-52.3-23.4-52.3-52.3s23.5-52.3,52.3-52.3s52.3,23.4,52.3,52.3
				S205.5,107.8,176.6,107.8z M176.6,7.4c-26.5,0-48.1,21.6-48.1,48.1s21.6,48.1,48.1,48.1s48.1-21.6,48.1-48.1S203.2,7.4,176.6,7.4
				z"/>
		</g>
		<path fill="#FFFFFF" d="M168.7,46.6c0-0.7-0.6-1.3-1.3-1.3h-5.5c-0.7,0-1.3,0.6-1.3,1.3v5.5c0,0.7,0.6,1.3,1.3,1.3h5.5
			c0.7,0,1.3-0.6,1.3-1.3V46.6z M168.7,60.1c0-0.7-0.6-1.3-1.3-1.3h-5.5c-0.7,0-1.3,0.6-1.3,1.3v5.5c0,0.7,0.6,1.3,1.3,1.3h5.5
			c0.7,0,1.3-0.6,1.3-1.3V60.1z M156.7,50.8c0-0.7-0.6-1.3-1.3-1.3h-10.8c-0.7,0-1.3,0.6-1.3,1.3v10.8c0,0.7,0.6,1.3,1.3,1.3h10.8
			c0.7,0,1.3-0.6,1.3-1.3V50.8z M196.9,46.6c0-0.7-0.6-1.3-1.3-1.3h-5.5c-0.7,0-1.3,0.6-1.3,1.3v18.7c0,0.7,0.6,1.3,1.3,1.3h5.5
			c0.7,0,1.3-0.6,1.3-1.3V46.6z M180.8,40.1c0-0.7-0.6-1.3-1.3-1.3H174c-0.7,0-1.3,0.6-1.3,1.3v30.8c0,0.7,0.6,1.3,1.3,1.3h5.5
			c0.7,0,1.3-0.6,1.3-1.3V40.1z M210.1,50.8c0-0.7-0.6-1.3-1.3-1.3h-1.3c-0.7,0-1.3,0.6-1.3,1.3v10.8c0,0.7,0.6,1.3,1.3,1.3h1.3
			c0.7,0,1.3-0.6,1.3-1.3V50.8z"/>
	</g>
	<g>
		<g id="TM_3_">
			<path fill="#FFFFFF" d="M309.8,187.9v8.2h-1.3v-8.2h-2.3v-1.3h5.9v1.3H309.8z"/>
			<path fill="#FFFFFF" d="M313.4,196.1v-9.4h1.5l2,4.7l1.9-4.7h1.6v9.4h-1.3v-6.8l-1.6,3.9h-1.1l-1.6-4v6.8L313.4,196.1
				L313.4,196.1z"/>
		</g>
		<g>
			<path fill="#FFFFFF" d="M171.3,130.5h4.7v20.1h10.4v4.7h-10.4v30c0,4.7,2.8,6.2,6.1,6.2h4.5v4.7h-4.9c-5.7,0-10.4-3.3-10.4-11.3
				C171.3,184.8,171.3,130.5,171.3,130.5z"/>
			<path fill="#FFFFFF" d="M226.3,196.1v-30.2c0-5.1-1.1-11.4-10.8-11.4c-7,0-12.6,4.6-12.6,11.2v30.4h-4.7v-65.6h4.8V156
				c2.9-4.5,8-6.2,12.6-6.2c10.1,0,15.5,6,15.5,16.1v30.2C231,196.1,226.3,196.1,226.3,196.1z"/>
			<path fill="#FFFFFF" d="M110.7,196.1v-30.2c0-5.1-1.1-11.4-10.8-11.4c-7,0-12.6,4.6-12.6,11.2v30.4h-4.7v-65.6h4.7V156
				c2.9-4.5,8-6.2,12.6-6.2c10.1,0,15.5,6,15.5,16.1v30.2C115.5,196.1,110.7,196.1,110.7,196.1z"/>
			<g>
				<g>
					<path fill="#FFFFFF" d="M274.5,196.1h-4.7v-28.9c0-0.1,0-6.2-3.6-9.9c-1.9-1.9-4.5-2.9-7.8-2.9c-3.3,0-5.9,1-7.8,2.9
						c-3.6,3.7-3.6,9.8-3.6,9.9v28.9h-4.7v-28.9c0-0.3-0.1-8.1,4.9-13.2c2.8-2.9,6.5-4.3,11.1-4.3c4.6,0,8.3,1.5,11.1,4.3
						c5,5.1,4.9,12.9,4.9,13.2V196.1z"/>
				</g>
				<g>
					<path fill="#FFFFFF" d="M302,196.1h-4.7v-28.9c0-0.1,0-6.2-3.6-9.9c-1.9-1.9-4.5-2.9-7.8-2.9c-3.3,0-5.9,1-7.8,2.9
						c-3.6,3.7-3.6,9.8-3.6,9.9v28.9h-4.7v-28.9c0-0.3-0.1-8.1,4.9-13.2c2.8-2.9,6.5-4.3,11.1-4.3c4.6,0,8.3,1.5,11.1,4.3
						c5,5.1,4.9,12.9,4.9,13.2V196.1z"/>
				</g>
			</g>
			<path fill="#FFFFFF" d="M71.1,150.1c-1.2-0.2-2.4-0.4-3.8-0.4c-4.6,0-8.3,1.5-11.1,4.3c-5,5.1-4.9,12.9-4.9,13.2v28.8H56v-28.9
				c0-0.1,0-6.2,3.6-9.9c1.9-1.9,4.5-2.9,7.8-2.9c1.4,0,2.6,0.2,3.8,0.5V150.1z"/>
			<g>
				<path fill="#FFFFFF" d="M155.2,190.5v19.4c0,0.1,0,6.2-3.6,9.9c-1.9,1.9-4.5,2.9-7.8,2.9v4.7c4.6,0,8.3-1.5,11.1-4.3
					c5-5.1,4.9-12.9,4.9-13.2v-59.4h-4.7v30.4c0,6.7-5.6,11.2-12.6,11.2c-9.7,0-10.8-6.3-10.8-11.4v-30.2h-4.7v30.2
					c0,10,5.4,16.1,15.5,16.1c4.6,0,9.8-1.7,12.6-6.2L155.2,190.5z"/>
			</g>
		</g>
	</g>
</g>
</svg>
