<?xml version="1.0" encoding="utf-8"?>
<!-- Generator: Adobe Illustrator 16.0.4, SVG Export Plug-In . SVG Version: 6.00 Build 0)  -->
<!DOCTYPE svg PUBLIC "-//W3C//DTD SVG 1.1 Tiny//EN" "http://www.w3.org/Graphics/SVG/1.1/DTD/svg11-tiny.dtd">
<svg version="1.1" baseProfile="tiny" id="Layer_1" xmlns="http://www.w3.org/2000/svg" xmlns:xlink="http://www.w3.org/1999/xlink"
	 x="0px" y="0px" width="144px" height="144px" viewBox="0 0 144 144" overflow="inherit" xml:space="preserve">
<g>
	<g>
		<g>
			<path fill="#FFFFFF" d="M72.016,63.001c-13.473,0-24.467-10.946-24.467-24.464c0-13.518,10.994-24.464,24.467-24.464
				c13.471,0,24.463,10.946,24.463,24.464C96.479,52.056,85.534,63.001,72.016,63.001z M72.016,16.038
				c-12.398,0-22.5,10.104-22.5,22.5c0,12.396,10.102,22.5,22.5,22.5c12.395,0,22.498-10.104,22.498-22.5
				C94.514,26.142,84.457,16.038,72.016,16.038z"/>
		</g>
		<path fill="#FFFFFF" d="M68.319,34.375c0-0.328-0.281-0.609-0.609-0.609h-2.573c-0.326,0-0.607,0.281-0.607,0.609v2.572
			c0,0.327,0.281,0.608,0.607,0.608h2.573c0.328,0,0.609-0.281,0.609-0.608V34.375z M68.319,40.688c0-0.327-0.281-0.608-0.609-0.608
			h-2.573c-0.326,0-0.607,0.281-0.607,0.608v2.573c0,0.327,0.281,0.608,0.607,0.608h2.573c0.328,0,0.609-0.281,0.609-0.608V40.688z
			 M62.705,36.339c0-0.328-0.278-0.607-0.606-0.607h-5.052c-0.328,0-0.606,0.279-0.606,0.607v5.052c0,0.327,0.278,0.608,0.606,0.608
			h5.052c0.328,0,0.606-0.281,0.606-0.608V36.339z M81.512,34.375c0-0.328-0.282-0.609-0.61-0.609h-2.573
			c-0.325,0-0.606,0.281-0.606,0.609v8.747c0,0.327,0.281,0.608,0.606,0.608h2.573c0.328,0,0.61-0.281,0.61-0.608V34.375z
			 M73.98,31.334c0-0.328-0.284-0.609-0.609-0.609h-2.574c-0.326,0-0.609,0.281-0.609,0.609v14.407c0,0.328,0.283,0.608,0.609,0.608
			h2.574c0.325,0,0.609-0.28,0.609-0.608V31.334z M87.684,36.339c0-0.328-0.28-0.607-0.605-0.607h-0.61
			c-0.325,0-0.608,0.279-0.608,0.607v5.052c0,0.327,0.283,0.608,0.608,0.608h0.61c0.325,0,0.605-0.281,0.605-0.608V36.339z"/>
	</g>
	<g>
		<g id="TM_3_">
			<path fill="#FFFFFF" d="M134.321,100.469v3.837h-0.609v-3.837h-1.076v-0.609h2.763v0.609H134.321z"/>
			<path fill="#FFFFFF" d="M136.007,104.306v-4.398h0.698l0.938,2.2l0.891-2.2h0.745v4.398h-0.609v-3.181l-0.745,1.823h-0.515
				l-0.751-1.87v3.18L136.007,104.306L136.007,104.306z"/>
		</g>
		<g>
			<path fill="#FFFFFF" d="M69.535,73.62h2.198v9.403h4.865v2.197h-4.865v14.033c0,2.197,1.312,2.901,2.854,2.901h2.106v2.197H74.4
				c-2.668,0-4.866-1.544-4.866-5.286C69.535,99.02,69.535,73.62,69.535,73.62z"/>
			<path fill="#FFFFFF" d="M95.263,104.306V90.179c0-2.387-0.516-5.334-5.053-5.334c-3.274,0-5.895,2.153-5.895,5.242v14.219H82.12
				V73.62h2.242v11.929c1.357-2.105,3.745-2.901,5.895-2.901c4.725,0,7.251,2.808,7.251,7.531v14.127
				C97.46,104.306,95.263,104.306,95.263,104.306z"/>
			<path fill="#FFFFFF" d="M41.189,104.306V90.179c0-2.387-0.515-5.334-5.052-5.334c-3.274,0-5.893,2.153-5.893,5.242v14.219h-2.2
				V73.62h2.2v11.929c1.355-2.105,3.74-2.901,5.893-2.901c4.724,0,7.25,2.808,7.25,7.531v14.127
				C43.434,104.306,41.189,104.306,41.189,104.306z"/>
			<g>
				<g>
					<path fill="#FFFFFF" d="M117.811,104.306h-2.201V90.785c0-0.045,0-2.899-1.684-4.629c-0.89-0.891-2.103-1.357-3.646-1.357
						s-2.763,0.467-3.65,1.357c-1.686,1.729-1.686,4.584-1.686,4.629v13.521h-2.195V90.785c0-0.137-0.047-3.787,2.291-6.173
						c1.31-1.357,3.039-2.013,5.192-2.013c2.151,0,3.882,0.702,5.191,2.013c2.34,2.386,2.292,6.036,2.292,6.173v13.521H117.811z"/>
				</g>
				<g>
					<path fill="#FFFFFF" d="M130.672,104.306h-2.199V90.785c0-0.045,0-2.899-1.683-4.629c-0.888-0.891-2.105-1.357-3.649-1.357
						s-2.757,0.467-3.647,1.357c-1.683,1.729-1.683,4.584-1.683,4.629v13.521h-2.201V90.785c0-0.137-0.047-3.787,2.293-6.173
						c1.31-1.357,3.041-2.013,5.19-2.013c2.153,0,3.884,0.702,5.194,2.013c2.337,2.386,2.293,6.036,2.293,6.173v13.521H130.672z"/>
				</g>
			</g>
			<path fill="#FFFFFF" d="M22.666,82.787c-0.562-0.092-1.123-0.188-1.78-0.188c-2.15,0-3.881,0.702-5.191,2.013
				c-2.339,2.386-2.292,6.036-2.292,6.173v13.473h2.2V90.74c0-0.047,0-2.901,1.681-4.629c0.89-0.891,2.106-1.36,3.65-1.36
				c0.656,0,1.218,0.094,1.778,0.236v-2.2H22.666z"/>
			<g>
				<path fill="#FFFFFF" d="M62.003,101.688v9.074c0,0.046,0,2.899-1.683,4.63c-0.887,0.89-2.105,1.357-3.649,1.357v2.198
					c2.153,0,3.883-0.702,5.194-2.012c2.337-2.387,2.29-6.034,2.29-6.174V82.976h-2.195v14.222c0,3.133-2.621,5.235-5.895,5.235
					c-4.538,0-5.052-2.945-5.052-5.33V82.976h-2.198v14.127c0,4.677,2.526,7.531,7.25,7.531c2.151,0,4.583-0.796,5.895-2.901
					L62.003,101.688z"/>
			</g>
		</g>
	</g>
</g>
</svg>
