<?xml version="1.0" encoding="utf-8"?>
<!-- Generator: Adobe Illustrator 16.0.4, SVG Export Plug-In . SVG Version: 6.00 Build 0)  -->
<!DOCTYPE svg PUBLIC "-//W3C//DTD SVG 1.1 Tiny//EN" "http://www.w3.org/Graphics/SVG/1.1/DTD/svg11-tiny.dtd">
<svg version="1.1" baseProfile="tiny" id="Layer_2" xmlns="http://www.w3.org/2000/svg" xmlns:xlink="http://www.w3.org/1999/xlink"
	 x="0px" y="0px" width="144px" height="144px" viewBox="0 0 144 144" overflow="inherit" xml:space="preserve">
<g>
	<path fill="#FFFFFF" d="M72.219,12.905v0.001V12.905c-28.457,0-51.693,7.65-51.693,17.149c0,2.502,6.206,38.377,8.668,52.604
		c1.103,6.381,17.592,15.735,43.012,15.735l0.026-0.075v0.075c25.42,0,41.91-9.354,43.014-15.735
		c2.461-14.227,8.667-50.103,8.667-52.604C123.912,20.555,100.677,12.905,72.219,12.905 M72.219,86.869
		c-9.076,0-16.433-7.357-16.433-16.432c0-9.076,7.357-16.432,16.433-16.432c9.075,0,16.433,7.356,16.433,16.432
		C88.651,79.512,81.294,86.869,72.219,86.869 M72.209,35.355c-18.284-0.03-33.1-3.206-33.094-7.097
		c0.006-3.892,14.834-7.021,33.117-6.99c18.283,0.028,33.101,3.205,33.094,7.097C105.321,32.257,90.493,35.384,72.209,35.355"/>
	<path fill="#FFFFFF" d="M109.372,96.919c-0.786,0-1.415,0.557-1.415,0.557s-12.73,10.079-35.738,10.081
		c-23.007-0.002-35.737-10.081-35.737-10.081s-0.63-0.557-1.417-0.557c-0.938,0-1.829,0.631-1.829,2.022
		c0,0.146,0.014,0.294,0.042,0.438c1.976,10.574,3.419,18.077,3.672,19.22c1.725,7.778,16.942,13.647,35.268,13.649h0.001h0.001
		c18.326-0.002,33.542-5.871,35.266-13.649c0.254-1.143,1.697-8.646,3.673-19.22c0.027-0.144,0.042-0.291,0.042-0.438
		C111.201,97.55,110.311,96.919,109.372,96.919"/>
	<path fill="#FFFFFF" d="M80.438,70.433c0,4.549-3.688,8.235-8.236,8.235c-4.548,0-8.235-3.687-8.235-8.235s3.687-8.235,8.235-8.235
		C76.751,62.197,80.438,65.884,80.438,70.433"/>
</g>
</svg>
