<?xml version="1.0" encoding="utf-8"?>
<!-- Generator: Adobe Illustrator 16.0.4, SVG Export Plug-In . SVG Version: 6.00 Build 0)  -->
<!DOCTYPE svg PUBLIC "-//W3C//DTD SVG 1.1 Tiny//EN" "http://www.w3.org/Graphics/SVG/1.1/DTD/svg11-tiny.dtd">
<svg version="1.1" baseProfile="tiny" id="Layer_1" xmlns="http://www.w3.org/2000/svg" xmlns:xlink="http://www.w3.org/1999/xlink"
	 x="0px" y="0px" width="144px" height="144px" viewBox="0 0 144 144" overflow="inherit" xml:space="preserve">
<path fill-rule="evenodd" fill="#FFFFFF" d="M71.998,14.308c-32.661,0-59.148,26.485-59.148,59.156
	c0,26.135,16.948,48.305,40.455,56.128c2.957,0.539,4.037-1.283,4.037-2.851c0-1.405-0.051-5.127-0.08-10.063
	c-16.454,3.573-19.926-7.93-19.926-7.93c-2.689-6.829-6.565-8.653-6.565-8.653c-5.371-3.666,0.404-3.595,0.404-3.595
	c5.937,0.417,9.062,6.099,9.062,6.099c5.277,9.036,13.844,6.425,17.215,4.915c0.537-3.822,2.064-6.433,3.755-7.907
	c-13.136-1.498-26.944-6.567-26.944-29.238c0-6.456,2.304-11.737,6.089-15.871c-0.609-1.498-2.639-7.511,0.58-15.653
	c0,0,4.967-1.593,16.266,6.064c4.718-1.312,9.778-1.973,14.809-1.994c5.025,0.021,10.081,0.682,14.81,1.994
	c11.293-7.657,16.25-6.064,16.25-6.064c3.229,8.142,1.195,14.155,0.59,15.653c3.787,4.134,6.077,9.415,6.077,15.871
	c0,22.726-13.83,27.726-27.008,29.187c2.125,1.83,4.015,5.441,4.015,10.958c0,7.907-0.07,14.284-0.07,16.228
	c0,1.581,1.063,3.419,4.067,2.843c23.485-7.835,40.414-29.993,40.414-56.12C131.15,40.793,104.669,14.308,71.998,14.308z"/>
</svg>
