<?xml version="1.0" encoding="utf-8"?>
<!-- Generator: Adobe Illustrator 16.0.4, SVG Export Plug-In . SVG Version: 6.00 Build 0)  -->
<!DOCTYPE svg PUBLIC "-//W3C//DTD SVG 1.1 Tiny//EN" "http://www.w3.org/Graphics/SVG/1.1/DTD/svg11-tiny.dtd">
<svg version="1.1" baseProfile="tiny" id="Layer_1" xmlns="http://www.w3.org/2000/svg" xmlns:xlink="http://www.w3.org/1999/xlink"
	 x="0px" y="0px" width="144px" height="144px" viewBox="0 0 144 144" overflow="inherit" xml:space="preserve">
<g>
	<g>
		<path fill="#FFFFFF" d="M122.913,12.243H21.065c-4.867,0-8.822,3.858-8.822,8.612v102.278c0,4.759,3.955,8.623,8.822,8.623
			h101.848c4.876,0,8.847-3.862,8.847-8.623V20.855C131.76,16.101,127.789,12.243,122.913,12.243z M47.691,114.084H29.963V57.048
			h17.728V114.084z M38.832,49.252c-5.683,0-10.281-4.605-10.281-10.28c0-5.668,4.6-10.275,10.281-10.275
			c5.667,0,10.272,4.605,10.272,10.275C49.104,44.646,44.499,49.252,38.832,49.252z M114.086,114.084H96.371V86.347
			c0-6.614-0.121-15.122-9.212-15.122c-9.223,0-10.639,7.205-10.639,14.644v28.216H58.809V57.048h0.001h17.002v7.793h0.237
			c2.366-4.484,8.148-9.212,16.772-9.212c17.95,0,21.265,11.813,21.265,27.169V114.084z"/>
	</g>
</g>
</svg>
