<?xml version="1.0" encoding="utf-8"?>
<!-- Generator: Adobe Illustrator 16.0.4, SVG Export Plug-In . SVG Version: 6.00 Build 0)  -->
<!DOCTYPE svg PUBLIC "-//W3C//DTD SVG 1.1 Tiny//EN" "http://www.w3.org/Graphics/SVG/1.1/DTD/svg11-tiny.dtd">
<svg version="1.1" baseProfile="tiny" id="svg3715" xmlns:svg="http://www.w3.org/2000/svg"
	 xmlns="http://www.w3.org/2000/svg" xmlns:xlink="http://www.w3.org/1999/xlink" x="0px" y="0px" width="64px" height="64px"
	 viewBox="0 0 64 64" overflow="inherit" xml:space="preserve">
<g id="layer1">
	<path id="path2830" fill="#FFFFFF" d="M9.305,36.848l4.401,0.043l-0.153,19.599h29.291V36.962h4.639v24.287H9.281L9.305,36.848z"/>
	<rect id="rect3604" x="16.482" y="48.434" fill="#FFFFFF" width="22.945" height="4.883"/>
	
		<rect id="rect3606" x="16.725" y="40.745" transform="matrix(-0.9954 -0.0961 0.0961 -0.9954 52.2317 89.0097)" fill="#FFFFFF" width="23.068" height="5.004"/>
	
		<rect id="rect3606-1" x="18.007" y="32.751" transform="matrix(-0.9624 -0.2716 0.2716 -0.9624 48.3943 77.2054)" fill="#FFFFFF" width="23.067" height="5.004"/>
	
		<rect id="rect3606-1-3" x="21.547" y="24.086" transform="matrix(-0.856 -0.517 0.517 -0.856 47.6501 66.4495)" fill="#FFFFFF" width="23.067" height="5.004"/>
	
		<rect id="rect3606-1-3-7" x="28.882" y="16.179" transform="matrix(-0.5825 -0.8129 0.8129 -0.5825 48.7708 62.4156)" fill="#FFFFFF" width="23.067" height="5.005"/>
	
		<rect id="rect3606-1-3-7-6" x="39.239" y="12.037" transform="matrix(-0.1648 -0.9863 0.9863 -0.1648 44.7981 67.0132)" fill="#FFFFFF" width="23.067" height="5.004"/>
</g>
</svg>
